# xmcd
#
# Track frame offsets:
#	150
#	21940
#	40537
#	60457
#	82177
#	99137
#	118917
#	138627
#	159777
#	181577
#	198550
#	220280
#
# Disc length: 3153 seconds
#
# Revision: 1
# Processed by: cddbd v1.4PL0 Copyright (c) Steve Scherf et al.
# Submitted via: EasyCDDAExtractor 6.0.0.1
#
DISCID=9b0c4f0c
DTITLE=아낌없이 주는 나무 - II.아낌없이 주는 나무
DYEAR=1900
DGENRE=Ballad
TTITLE0=너 없는 이 밤에
TTITLE1=나만의 회상
TTITLE2=너의 허상 <Part I>
TTITLE3=그녀에게 띄우는 편지
TTITLE4=내마음의 슬픈 동화
TTITLE5=기억속의 너
TTITLE6=너의 허상 <현악 3중주>
TTITLE7=친구에게
TTITLE8=너없는 이밤에 (Rehearsal)
TTITLE9=내마음의 슬픈 동화 (Radio Star)
TTITLE10=그녀에게 띄우는 편지 (Instrumental)
TTITLE11=나만의 회상 (Instrumental)
EXTD=
EXTT0=
EXTT1=
EXTT2=
EXTT3=
EXTT4=
EXTT5=
EXTT6=
EXTT7=
EXTT8=
EXTT9=
EXTT10=
EXTT11=
PLAYORDER=
